<?xml version="1.0" encoding="utf-8"?>
<!-- Generator: Adobe Illustrator 26.3.1, SVG Export Plug-In . SVG Version: 6.00 Build 0)  -->
<svg version="1.1" id="Calque_2_00000178188238382002088220000011288567109952792458_"
	 xmlns="http://www.w3.org/2000/svg" xmlns:xlink="http://www.w3.org/1999/xlink" x="0px" y="0px" viewBox="0 0 170.6 170.6"
	 style="enable-background:new 0 0 170.6 170.6;" xml:space="preserve">
<style type="text/css">
	.st0{fill:#1866A5;}
	.st1{fill:#FFFFFF;}
</style>
<g id="Layer_1">
	<g id="g1102" transform="matrix(2,0,0,2,10.600006,10.699997)">
		<g id="g1032">
			<g id="g1030">
				<rect id="SVGID" x="-5.3" y="-5.3" class="st0" width="85.3" height="85.3"/>
			</g>
		</g>
	</g>
	<g id="g1124" transform="matrix(2,0,0,2,10.600006,10.699997)">
		<polygon id="polygon1104" class="st1" points="11.1,51.2 11.1,56.5 22.3,56.5 22.3,60.7 6.3,60.7 6.3,38.1 22.3,38.1 22.3,42.2 
			11.1,42.2 11.1,47.1 22,47.1 22,51.2 		"/>
		<path id="path1106" class="st1" d="M25,49.4c0-7,5.3-11.7,11.9-11.7c5.2,0,8,2.7,9.7,5.5l-4.1,2.1c-1-1.8-3.1-3.3-5.7-3.3
			c-3.9,0-7,3.1-7,7.3s3,7.3,7,7.3c2.4,0,4.5-1.4,5.5-3.2l4.1,1.9c-1.7,2.8-4.5,5.5-9.7,5.5C30.1,61.2,25,56.3,25,49.4"/>
		<path id="path1108" class="st1" d="M10.2,63.8c1.5,0,2.4,0.8,3,1.5l-1.3,0.6C11.5,65.4,11,65,10.2,65c-1.3,0-2.3,1-2.3,2.3
			c0,1.4,0.9,2.3,2.3,2.3c0.6,0,1.3-0.3,1.5-0.5v-0.9H9.8v-1.3h3.5v2.7c-0.8,0.8-1.8,1.4-3.1,1.4c-2.1,0-3.9-1.4-3.9-3.7
			C6.3,65.2,8,63.8,10.2,63.8"/>
		<path id="path1110" class="st1" d="M23.4,68.6h-1.2v2.6h-1.5V64H24c1.5,0,2.4,1,2.4,2.3s-0.8,1.9-1.5,2.2l1.7,2.7h-1.8L23.4,68.6z
			 M23.9,65.2h-1.7v1.9h1.7c0.6,0,1-0.4,1-1C25,65.7,24.5,65.2,23.9,65.2"/>
		<path id="path1112" class="st1" d="M37.6,63.8c2.2,0,3.7,1.5,3.7,3.7s-1.5,3.7-3.7,3.7s-3.7-1.5-3.7-3.7
			C33.7,65.3,35.4,63.8,37.6,63.8 M37.6,65.2c-1.3,0-2.2,1-2.2,2.3s0.9,2.3,2.2,2.3s2.2-1,2.2-2.3S38.9,65.2,37.6,65.2"/>
		<path id="path1114" class="st1" d="M48.3,64h1.5v4.3c0,1,0.5,1.7,1.7,1.7s1.7-0.6,1.7-1.7V64h1.5v4.4c0,1.8-1,3-3.2,3
			s-3.2-1.3-3.2-3V64z"/>
		<g id="g1122">
			<path id="path1116" class="st1" d="M6.3,33.9C6.3,17,20,3.4,36.8,3.4s30.5,13.7,30.5,30.5h-6.2c-0.6-0.6-2.2-1.8-3.2-1.8
				s-1.8,0.3-3.2,0.1c-1.4-0.1-1-0.5-2.1-0.6c-1.2-0.1-2.7-0.1-3.1-0.3c-0.3-0.1-1.8-0.9-1.4-1.7c0.4-0.6,0.6-0.9,0.8-1.7
				c0-0.6-0.8-2.8-1-3.5c-0.3-0.6-0.4-1.7-0.3-1.9c0.1-0.4,0-0.3,0.5,0c0.6,0.2,1.2,0.2,1.7,0.2s1.2,0.4,1.3-0.5
				c0-0.5-0.1-1-0.3-1.3c-0.1-0.3,0-0.1,0.1-0.3c0.1-0.1,0-0.5,0-0.5s0.6-0.4,0.8-0.8c0.1-0.3,0.4-0.8,0.5-1c0.1-0.3,0-0.5,0.1-0.6
				c0.1,0,0.8-0.8,0.8-1c-0.1-0.3-0.1-1-3-2.2c-0.6-0.4-0.8-0.5-0.9-0.8s-0.4-1-1.3-1.3c-0.5-0.1-1.2-0.4-1.4-0.5
				c-0.3-0.1-0.6-0.4-0.5-0.5c0.1-0.3-0.3-0.8-0.3-0.8c-0.1-0.1,0-0.2,0.1-0.5c0.1-0.3-0.8-1.3-1.4-1.5c-0.5-0.3-0.9-0.3-1.5,0
				s-0.1-0.1-1.2-0.1C40.7,8.5,40,9,39,10s0,0.6-1.4,1.3c-1.4,0.6-3,3.5-3.3,4c-0.4,0.4-2.6,1.8-2.2,5.7c-0.8,0.8-0.5,1.5-2.4,1.9
				c-3.2,0.9-9.8-2.1-13.3,0.5c-2.7,1.9-3.9,3.9-4.4,10.6C12.1,33.9,6.3,33.9,6.3,33.9L6.3,33.9L6.3,33.9z"/>
			<path id="path1118" class="st1" d="M57.6,52.7h-3.5v8.1h-4.8V38h10.6c4.6,0,7.6,3.1,7.6,7.2s-2.4,6.2-4.9,6.7l5,8.6h-5.5
				L57.6,52.7z M59.1,42.2h-5v6.2h5c1.9,0,3.3-1.2,3.3-3.1C62.5,43.5,61,42.2,59.1,42.2"/>
			<path id="path1120" class="st1" d="M62.5,64h3.3c1.5,0,2.4,1,2.4,2.3s-0.9,2.3-2.4,2.3H64v2.6h-1.5V64L62.5,64z M65.7,65.3H64
				v1.9h1.7c0.6,0,1-0.4,1-1C66.7,65.7,66.2,65.3,65.7,65.3"/>
		</g>
	</g>
</g>
</svg>
