<svg xmlns="http://www.w3.org/2000/svg" xmlns:xlink="http://www.w3.org/1999/xlink" viewBox="0 0 160 70.75"><defs><style>.cls-1{fill:#0155a0;}.cls-2{fill:#fbb034;}.cls-3{fill:url(#linear-gradient);}</style><linearGradient id="linear-gradient" x1="17.63" y1="-1.12" x2="45.83" y2="47.74" gradientUnits="userSpaceOnUse"><stop offset="0" stop-color="#ffe600"/><stop offset="0.17" stop-color="#fed510"/><stop offset="0.46" stop-color="#fcc124"/><stop offset="0.73" stop-color="#fbb430"/><stop offset="1" stop-color="#fbb034"/></linearGradient></defs><title>logo-blue</title><g id="Layer_2" data-name="Layer 2"><g id="Layer_1-2" data-name="Layer 1"><path class="cls-1" d="M85.46,33.79c0,3.52-1.43,4.59-3.82,4.59H68.58c.15,4.34,2.7,5.61,6.12,5.61a15.37,15.37,0,0,0,5.86-1.27c.82-.26,1-.21,1.28.35l1.63,3.68c.26.61.1.86-.46,1.22a17.66,17.66,0,0,1-9,2.3c-8.92,0-13.11-4.24-13.11-13.83,0-9,4.95-14.18,12.65-14.18C81.48,22.26,85.46,26.39,85.46,33.79Zm-16.73-.15h9.54c0-3-1-5.26-4.59-5.26C70.87,28.38,69,30.57,68.73,33.64Z"/><path class="cls-1" d="M97.79,60.11h-5.3c-.77,0-1.08-.1-1.08-.87V26c0-.76.16-1.12,1-1.58a29,29,0,0,1,11.28-2c9.64,0,12.9,6.17,12.9,13.93,0,7.6-3.77,13.87-12,13.87a25.53,25.53,0,0,1-5.77-.61v9.69C98.86,60,98.76,60.11,97.79,60.11Zm4.95-31.37a15.72,15.72,0,0,0-3.88.56V43.23a17,17,0,0,0,4.24.56c3.41,0,5.76-2.09,5.76-7.66S106.62,28.74,102.74,28.74Z"/><path class="cls-1" d="M129.21,60.11h-5.3c-.77,0-1.07-.1-1.07-.87V26c0-.76.15-1.12,1-1.58a28.87,28.87,0,0,1,11.27-2c9.64,0,12.91,6.17,12.91,13.93,0,7.6-3.78,13.87-12,13.87a25.39,25.39,0,0,1-5.76-.61v9.69C130.29,60,130.18,60.11,129.21,60.11Zm4.95-31.37a15.58,15.58,0,0,0-3.87.56V43.23a17,17,0,0,0,4.23.56c3.42,0,5.76-2.09,5.76-7.66S138,28.74,134.16,28.74Z"/><path class="cls-1" d="M139.21,55.14a.19.19,0,0,1,.11.19v4.38c0,1.77-.83,2.38-2.4,2.62-.11,0-.14,0-.16-.11l-.07-.55a.12.12,0,0,1,.1-.13c1.09-.15,1.67-.48,1.67-1.46V60a4.71,4.71,0,0,1-1.27.22c-1.49,0-2.14-1.1-2.14-2.65s.71-2.78,2.3-2.78A4.75,4.75,0,0,1,139.21,55.14Zm-1.83.41c-.88,0-1.49.57-1.49,2s.52,1.95,1.4,1.95a4.07,4.07,0,0,0,1.19-.2V55.72A3.52,3.52,0,0,0,137.38,55.55Z"/><path class="cls-1" d="M143.52,56.13a1.88,1.88,0,0,0-1.35-.55,2.81,2.81,0,0,0-.56.06V60c0,.13-.05.15-.15.15h-.52c-.11,0-.15,0-.15-.15V55.61c0-.48.11-.68.59-.76a6.4,6.4,0,0,1,.73-.05,2.67,2.67,0,0,1,1.91.69.1.1,0,0,1,0,.16l-.35.47C143.61,56.21,143.58,56.17,143.52,56.13Z"/><path class="cls-1" d="M146.84,60.23c-1.43,0-2.19-.93-2.19-2.71s.95-2.72,2.22-2.72c1.44,0,2.21,1,2.21,2.69S148.29,60.23,146.84,60.23Zm0-4.7c-1,0-1.4.9-1.4,2s.32,2,1.37,2,1.4-1,1.4-2S148,55.53,146.88,55.53Z"/><path class="cls-1" d="M150.43,54.9H151c.1,0,.15,0,.15.15V57.7c0,1.2.23,1.75,1.47,1.75a5.73,5.73,0,0,0,.9-.08V55.05c0-.13,0-.15.15-.15h.53c.1,0,.15,0,.15.15v4.33a.69.69,0,0,1-.6.76,10.35,10.35,0,0,1-1.2.08c-1.63,0-2.23-.68-2.23-2.47v-2.7C150.28,54.92,150.33,54.9,150.43,54.9Z"/><path class="cls-1" d="M157.8,60.23a3.94,3.94,0,0,1-1.24-.17V62c0,.12,0,.14-.14.14h-.53c-.1,0-.15,0-.15-.14V55.34a.17.17,0,0,1,.11-.17,4.7,4.7,0,0,1,1.94-.37c1.52,0,2.21,1.15,2.21,2.71S159.28,60.23,157.8,60.23Zm-.14-4.68a3.34,3.34,0,0,0-1.1.19V59.3a3.52,3.52,0,0,0,1.1.18c.87,0,1.48-.51,1.48-2S158.56,55.55,157.66,55.55Z"/><path class="cls-1" d="M62,64.33a.38.38,0,0,1-.37-.38.39.39,0,0,1,.37-.4.38.38,0,0,1,.37.4A.37.37,0,0,1,62,64.33Zm.16,4.84h-.33c-.07,0-.1,0-.1-.11V65.17c0-.08,0-.1.1-.1h.33c.09,0,.11,0,.11.1v3.89C62.3,69.15,62.28,69.17,62.19,69.17Z"/><path class="cls-1" d="M66.78,69.17h-.34c-.06,0-.1,0-.1-.11V67c0-1-.25-1.49-1.27-1.49a4.23,4.23,0,0,0-.79.08v3.49c0,.09,0,.11-.11.11h-.33c-.07,0-.11,0-.11-.11V65.58a.47.47,0,0,1,.4-.52,8.09,8.09,0,0,1,1-.08c1.27,0,1.78.56,1.78,2v2.11C66.89,69.15,66.86,69.17,66.78,69.17Z"/><path class="cls-1" d="M70.25,65.44v-.19c0-.07,0-.09.08-.12l.59-.1.1-.76c0-.09,0-.11.12-.14l.2-.07c.06,0,.1,0,.1.08v.93h.87c.08,0,.09,0,.09.1v.27c0,.06,0,.09-.09.09h-.87v2.63c0,.38.12.58.54.58a3.38,3.38,0,0,0,.57-.07c.08,0,.09,0,.1.06l.06.3s0,.08,0,.11a2.71,2.71,0,0,1-.76.1c-.75,0-1-.32-1-1V65.53h-.56C70.25,65.53,70.25,65.49,70.25,65.44Z"/><path class="cls-1" d="M76.76,69.17h-.35c-.09,0-.11,0-.11-.11V66.78c0-.88-.33-1.3-1.07-1.3a2.6,2.6,0,0,0-1,.19v3.39c0,.09,0,.11-.1.11H73.8c-.06,0-.1,0-.1-.11v-5.5c0-.08,0-.1.1-.1h.34c.08,0,.1,0,.1.1v1.62a3,3,0,0,1,1.08-.2c1.12,0,1.54.69,1.54,1.81v2.27C76.85,69.15,76.82,69.17,76.76,69.17Z"/><path class="cls-1" d="M81.36,66.73c0,.44-.23.54-.5.54H78.6c0,1.09.55,1.48,1.24,1.48a1.78,1.78,0,0,0,.87-.22c.06,0,.1,0,.13,0l.13.27c0,.06,0,.11,0,.13a2.09,2.09,0,0,1-1.13.28c-1.09,0-1.75-.64-1.75-2.11S78.76,65,79.74,65A1.54,1.54,0,0,1,81.36,66.73Zm-1.62-1.26c-.7,0-1.08.59-1.12,1.33h2.22C80.84,66.09,80.6,65.47,79.74,65.47Z"/><path class="cls-1" d="M88,66.73c0,.44-.22.54-.5.54H85.28c0,1.09.55,1.48,1.24,1.48a1.78,1.78,0,0,0,.87-.22c.06,0,.11,0,.13,0l.13.27c0,.06,0,.11,0,.13a2.12,2.12,0,0,1-1.14.28c-1.09,0-1.75-.64-1.75-2.11S85.44,65,86.42,65A1.54,1.54,0,0,1,88,66.73Zm-1.62-1.26c-.7,0-1.08.59-1.12,1.33h2.22C87.52,66.09,87.28,65.47,86.42,65.47Z"/><path class="cls-1" d="M89.25,65.06h.34c.08,0,.1,0,.1.1v2.13c0,1,.19,1.45,1.23,1.45a4.31,4.31,0,0,0,.79-.08v-3.5c0-.08,0-.1.1-.1h.35c.06,0,.1,0,.1.1v3.5a.46.46,0,0,1-.41.51,8.35,8.35,0,0,1-1,.07c-1.28,0-1.74-.5-1.74-1.91V65.16C89.15,65.08,89.17,65.06,89.25,65.06Z"/><path class="cls-1" d="M95.78,66a1.49,1.49,0,0,0-1.08-.45,2,2,0,0,0-.51,0v3.51c0,.09,0,.11-.11.11h-.33c-.07,0-.1,0-.1-.11V65.55c0-.32.08-.46.4-.52a4.68,4.68,0,0,1,.61,0,2.09,2.09,0,0,1,1.46.54.08.08,0,0,1,0,.11l-.23.31C95.84,66,95.82,66,95.78,66Z"/><path class="cls-1" d="M98.55,69.25c-1.1,0-1.69-.73-1.69-2.13S97.57,65,98.57,65s1.7.78,1.7,2.12S99.65,69.25,98.55,69.25Zm0-3.78c-.83,0-1.17.75-1.17,1.63s.29,1.68,1.15,1.68,1.17-.85,1.17-1.66S99.49,65.47,98.57,65.47Z"/><path class="cls-1" d="M103,69.25a3.25,3.25,0,0,1-1-.15v1.56c0,.08,0,.09-.1.09h-.34c-.07,0-.11,0-.11-.09V65.39a.14.14,0,0,1,.09-.13,3.72,3.72,0,0,1,1.49-.28c1.17,0,1.7.88,1.7,2.13S104.19,69.25,103,69.25ZM103,65.48a2.56,2.56,0,0,0-.94.17V68.6a2.71,2.71,0,0,0,.93.16c.71,0,1.23-.46,1.23-1.65S103.68,65.48,103,65.48Z"/><path class="cls-1" d="M109.11,66.73c0,.44-.23.54-.5.54h-2.26c0,1.09.54,1.48,1.23,1.48a1.79,1.79,0,0,0,.88-.22c.06,0,.1,0,.13,0l.13.27a.09.09,0,0,1,0,.13,2.09,2.09,0,0,1-1.13.28c-1.09,0-1.75-.64-1.75-2.11s.71-2.16,1.69-2.16A1.54,1.54,0,0,1,109.11,66.73Zm-1.62-1.26c-.7,0-1.08.59-1.12,1.33h2.22C108.59,66.09,108.35,65.47,107.49,65.47Z"/><path class="cls-1" d="M113,69a3.63,3.63,0,0,1-1.44.26c-1.26,0-1.58-.62-1.58-1.28s.5-1.38,1.58-1.38h1v-.21c0-.53-.15-.9-1-.9a3.54,3.54,0,0,0-1,.18c-.06,0-.1,0-.12,0l-.08-.28a.1.1,0,0,1,.06-.12,3.58,3.58,0,0,1,1.27-.23c1,0,1.41.46,1.41,1.32v2.51A.19.19,0,0,1,113,69Zm-1.41-1.9c-.37,0-1.07.07-1.07.88,0,.63.5.81,1,.81a3.29,3.29,0,0,0,1-.17V67.09Z"/><path class="cls-1" d="M117.54,69.17h-.35c-.06,0-.1,0-.1-.11V67c0-1-.25-1.49-1.27-1.49a4.31,4.31,0,0,0-.79.08v3.49c0,.09,0,.11-.11.11h-.33c-.07,0-.1,0-.1-.11V65.58a.46.46,0,0,1,.4-.52,7.77,7.77,0,0,1,1-.08c1.27,0,1.78.56,1.78,2v2.11C117.64,69.15,117.62,69.17,117.54,69.17Z"/><path class="cls-1" d="M122.89,69.25a3.35,3.35,0,0,1-1-.15v1.56c0,.08,0,.09-.09.09h-.35c-.06,0-.1,0-.1-.09V65.39a.14.14,0,0,1,.08-.13A3.78,3.78,0,0,1,122.9,65c1.18,0,1.7.88,1.7,2.13S124.05,69.25,122.89,69.25Zm-.08-3.77a2.64,2.64,0,0,0-.94.17V68.6a2.8,2.8,0,0,0,.94.16c.71,0,1.23-.46,1.23-1.65S123.54,65.48,122.81,65.48Z"/><path class="cls-1" d="M128.65,69a3.63,3.63,0,0,1-1.44.26c-1.27,0-1.58-.62-1.58-1.28s.5-1.38,1.58-1.38h1v-.21c0-.53-.16-.9-.95-.9a3.49,3.49,0,0,0-1,.18c-.06,0-.1,0-.12,0l-.08-.28a.1.1,0,0,1,.06-.12,3.58,3.58,0,0,1,1.27-.23c1,0,1.41.46,1.41,1.32v2.51A.19.19,0,0,1,128.65,69Zm-1.41-1.9c-.37,0-1.07.07-1.07.88,0,.63.49.81,1,.81a3.29,3.29,0,0,0,1-.17V67.09Z"/><path class="cls-1" d="M132.27,66a1.53,1.53,0,0,0-1.09-.45,2,2,0,0,0-.51,0v3.51c0,.09,0,.11-.1.11h-.34c-.06,0-.09,0-.09-.11V65.55c0-.32.07-.46.39-.52a4.69,4.69,0,0,1,.62,0,2.05,2.05,0,0,1,1.45.54.07.07,0,0,1,0,.11l-.23.31C132.33,66,132.3,66,132.27,66Z"/><path class="cls-1" d="M134.76,69.16a1.38,1.38,0,0,1-.51.08c-.48,0-.64-.24-.64-.74V63.56c0-.08,0-.1.11-.1h.34c.08,0,.1,0,.1.1v4.77c0,.31.06.41.28.41a2.48,2.48,0,0,0,.27,0s.08,0,.08.07l0,.25C134.84,69.12,134.83,69.13,134.76,69.16Z"/><path class="cls-1" d="M136.2,64.33a.38.38,0,0,1-.37-.38.37.37,0,1,1,.74,0A.38.38,0,0,1,136.2,64.33Zm.16,4.84H136c-.07,0-.11,0-.11-.11V65.17c0-.08,0-.1.11-.1h.33c.08,0,.1,0,.1.1v3.89C136.46,69.15,136.44,69.17,136.36,69.17Z"/><path class="cls-1" d="M140.68,69a3.57,3.57,0,0,1-1.44.26c-1.26,0-1.58-.62-1.58-1.28s.5-1.38,1.59-1.38h1v-.21c0-.53-.16-.9-1-.9a3.43,3.43,0,0,0-1,.18c-.07,0-.11,0-.13,0l-.07-.28a.08.08,0,0,1,.06-.12,3.52,3.52,0,0,1,1.26-.23c1,0,1.41.46,1.41,1.32v2.51A.17.17,0,0,1,140.68,69Zm-1.41-1.9c-.36,0-1.07.07-1.07.88,0,.63.5.81,1,.81a3.34,3.34,0,0,0,1-.17V67.09Z"/><path class="cls-1" d="M147.7,66.88v2.19c0,.09,0,.1-.1.1h-.33c-.08,0-.11,0-.11-.1V67c0-1-.28-1.51-1.12-1.51a2.42,2.42,0,0,0-1.07.31,2.64,2.64,0,0,1,.18,1.15v2.12c0,.09,0,.1-.1.1h-.34c-.06,0-.09,0-.09-.1V66.93c0-.93-.25-1.44-1.2-1.44a3.81,3.81,0,0,0-.73.08v3.49c0,.09,0,.11-.11.11h-.33c-.07,0-.1,0-.1-.11V65.58a.46.46,0,0,1,.4-.52,6.25,6.25,0,0,1,.85-.08,1.62,1.62,0,0,1,1.28.45h0a2.47,2.47,0,0,1,1.42-.45C147.32,65,147.7,65.74,147.7,66.88Z"/><path class="cls-1" d="M152.21,66.73c0,.44-.22.54-.5.54h-2.26c0,1.09.55,1.48,1.24,1.48a1.78,1.78,0,0,0,.87-.22c.06,0,.11,0,.13,0l.13.27c0,.06,0,.11,0,.13a2.12,2.12,0,0,1-1.14.28c-1.09,0-1.75-.64-1.75-2.11s.71-2.16,1.69-2.16A1.54,1.54,0,0,1,152.21,66.73Zm-1.62-1.26c-.7,0-1.08.59-1.12,1.33h2.22C151.69,66.09,151.45,65.47,150.59,65.47Z"/><path class="cls-1" d="M156.4,69.17h-.34c-.07,0-.11,0-.11-.11V67c0-1-.25-1.49-1.26-1.49a4.39,4.39,0,0,0-.8.08v3.49c0,.09,0,.11-.1.11h-.34c-.06,0-.1,0-.1-.11V65.58a.46.46,0,0,1,.4-.52,8.09,8.09,0,0,1,1-.08c1.27,0,1.78.56,1.78,2v2.11C156.5,69.15,156.48,69.17,156.4,69.17Z"/><path class="cls-1" d="M157.39,65.44v-.19c0-.07,0-.09.09-.12l.58-.1.11-.76c0-.09,0-.11.11-.14l.2-.07c.07,0,.1,0,.1.08v.93h.87c.08,0,.09,0,.09.1v.27c0,.06,0,.09-.09.09h-.87v2.63c0,.38.12.58.55.58a3.63,3.63,0,0,0,.57-.07c.08,0,.09,0,.09.06l.06.3s0,.08,0,.11a2.63,2.63,0,0,1-.76.1c-.75,0-1-.32-1-1V65.53h-.56C157.4,65.53,157.39,65.49,157.39,65.44Z"/><polygon class="cls-2" points="51.54 57.15 48.95 55.29 52.16 55.22 53.14 52.16 54.12 55.19 57.3 55.15 54.69 57.04 55.66 60.12 53.09 58.27 50.56 60.12 51.54 57.15"/><polygon class="cls-2" points="42.58 60.72 43.91 58.57 44.14 61.1 46.62 61.71 44.27 62.65 44.48 65.16 42.84 63.2 40.46 64.14 41.78 62.01 40.17 60.11 42.58 60.72"/><polygon class="cls-2" points="23.88 65.7 25.11 64.5 24.84 66.21 26.37 67.03 24.67 67.25 24.39 68.94 23.63 67.38 21.99 67.59 23.13 66.41 22.39 64.89 23.88 65.7"/><polygon class="cls-2" points="33.35 63.86 34.66 62.28 34.57 64.34 36.49 65.1 34.5 65.6 34.39 67.64 33.29 65.89 31.37 66.36 32.57 64.81 31.48 63.11 33.35 63.86"/><path class="cls-3" d="M41,19.75a27.88,27.88,0,0,1,25.38-.61c-5.93-8.32-17.74-7.73-22.94-4.73C41.3,6.11,32.62.71,24.16.07S6.66,3.35,2.94,10.59-5.46,33.7,20.27,62.5h0C8.93,44.5,6.78,34.19,7.08,24.28,7.34,15.81,12.41,9.76,19,7.92,33.2,4.5,39.64,14.67,41,19.75Z"/></g></g></svg>