<?xml version="1.0" encoding="UTF-8"?><svg id="Calque_2" xmlns="http://www.w3.org/2000/svg" viewBox="0 0 56.98 31.45"><defs><style>.cls-1{fill:#ffbe00;}.cls-2{fill:#008200;}</style></defs><g id="Calque_1-2"><g id="BM"><path class="cls-2" d="M53.59,17.08l-1.1,.89,.46-1.29-.97-.76h1.25l.35-1.12,.38,1.12h1.29l-1.03,.76,.46,1.29-1.1-.89Zm-.67,6.77l-1.11-.89-1.1,.89,.47-1.3-.97-.75h1.25l.35-1.12,.38,1.12h1.29l-1.03,.75,.46,1.3Zm-4.62-15.8l.46,1.29-1.11-.89-1.1,.89,.46-1.29-.97-.76h1.25l.35-1.12,.38,1.12h1.29l-1.03,.76Zm.23,18.9l-1.11-.89-1.09,.89,.46-1.29-.97-.75h1.25l.35-1.12,.38,1.12h1.29l-1.03,.75,.46,1.29Zm-3.2-4.82h-6.39v-1.63h4.32v-3.2h-4.36v-1.55h4.36v-3.18s-4.42,0-4.42,0v-1.51h6.49v11.07Zm-1.97,6.14l-1.1-.89-1.1,.89,.46-1.29-.97-.75h1.26l.35-1.12,.38,1.12h1.29l-1.03,.75,.46,1.29Zm-5.36-1.27l-1.11-.89-1.1,.89,.46-1.29-.97-.75h1.25l.35-1.12,.39,1.12h1.29l-1.03,.75,.46,1.29Zm-1.85-19.8l.35-1.12,.38,1.12h1.29l-1.03,.76,.46,1.29-1.11-.89-1.09,.89,.46-1.29-.97-.76h1.25Zm-2.28,16.6l-1.1-.89-1.1,.89,.46-1.29-.97-.76h1.25l.35-1.12,.38,1.12h1.29l-1.03,.76,.46,1.29Zm-4.08-7.38h1.25l.35-1.12,.38,1.12h1.29l-1.03,.75,.46,1.29-1.11-.89-1.1,.89,.46-1.29-.97-.75Zm2.2-5.63l.35-1.12,.38,1.12h1.29l-1.03,.76,.46,1.29-1.11-.89-1.1,.89,.46-1.29-.97-.76h1.27Zm9.85-5.37l.35-1.12,.38,1.12h1.29l-1.03,.76,.46,1.29-1.11-.89-1.09,.89,.46-1.29-.97-.76h1.25Zm9.93,5.37l.35-1.12,.38,1.12h1.28l-1.03,.76,.46,1.29-1.11-.89-1.1,.89,.46-1.29-.97-.76h1.26ZM42.42,2.78c-8.04,0-14.56,6.09-14.56,13.59s6.52,13.59,14.56,13.59,14.56-6.08,14.56-13.59-6.53-13.59-14.57-13.59"/><path class="cls-1" d="M20.22,.47h0s-.18,.25-.46,.68-.66,1.02-1.04,1.7c-.42,.72-.79,1.47-1.12,2.23-.32,.73-.55,1.5-.68,2.28-.1,.59-.05,1.19,.14,1.76,.14,.41,.38,.78,.68,1.08,.22,.22,.48,.4,.76,.55,.12,.06,.24,.11,.36,.15,0,0,.17-.13,.43-.38,.35-.33,.67-.68,.97-1.06,.4-.5,.75-1.03,1.03-1.6,.32-.63,.53-1.31,.63-2.01,.08-.69,.04-1.39-.11-2.07-.14-.59-.34-1.17-.6-1.72-.19-.41-.41-.8-.66-1.17-.1-.15-.2-.29-.32-.43"/><path class="cls-1" d="M7.46,16.38h-.05c-.82,.13-1.68,.32-2.51,.52s-1.63,.43-2.33,.64-1.31,.4-1.76,.55-.74,.24-.8,.25h-.01c.17,.16,.37,.3,.57,.42,.48,.32,.99,.6,1.52,.85,.69,.33,1.41,.58,2.16,.76,.82,.2,1.66,.24,2.49,.14h.12c.4-.06,.79-.14,1.18-.26,.36-.11,.71-.24,1.05-.4,.31-.14,.62-.31,.91-.49,.28-.17,.53-.35,.76-.52s.43-.34,.61-.5c.18-.16,.32-.3,.44-.42s.21-.22,.27-.29,.09-.11,.1-.11h0c-.08-.1-.16-.18-.27-.25-.26-.2-.54-.36-.84-.49-.47-.2-.96-.34-1.47-.4-.71-.09-1.44-.09-2.15,.02"/><path class="cls-1" d="M29.69,11.2h-.13c-.78,.12-1.54,.35-2.25,.69-.6,.29-1.16,.64-1.67,1.05-.37,.29-.72,.61-1.05,.96-.24,.25-.36,.42-.37,.42,.08,.1,.17,.19,.28,.26,.27,.21,.56,.38,.87,.52,.48,.22,.99,.36,1.52,.44,.73,.1,1.47,.11,2.21,0,.86-.13,1.71-.3,2.55-.52,.84-.22,1.64-.46,2.34-.68s1.3-.44,1.74-.6,.7-.26,.74-.26h0c-.18-.17-.37-.32-.58-.45-.49-.33-1-.63-1.53-.89-.69-.34-1.42-.61-2.17-.79-.81-.2-1.65-.26-2.47-.16"/><path class="cls-1" d="M3.58,11.2s.11,.26,.3,.61c.24,.45,.51,.88,.81,1.3,.38,.53,.81,1.02,1.3,1.46,.52,.47,1.11,.85,1.77,1.1,.21,.08,.43,.15,.66,.19,.22,.05,.43,.08,.65,.1,.21,.02,.43,.02,.64,.01,.21,0,.41-.02,.62-.05,.21-.03,.42-.07,.62-.11s.39-.1,.57-.15,.35-.11,.51-.18,.31-.12,.44-.18,.26-.12,.37-.17,.2-.1,.28-.15,.14-.08,.17-.1l.06-.04c0-.13,0-.27-.02-.4-.04-.32-.12-.62-.25-.91-.18-.4-.44-.76-.76-1.06-.45-.39-.98-.67-1.56-.82-.74-.17-1.49-.28-2.25-.34-.79-.07-1.6-.1-2.32-.11s-1.36,0-1.83,0c-.26,.02-.52,.01-.78-.02"/><path class="cls-1" d="M10.94,5.06s-.05,.24-.1,.64c-.07,.51-.11,1.03-.13,1.55-.02,.65,.02,1.3,.12,1.94,.09,.64,.31,1.25,.64,1.81,.24,.39,.58,.72,.97,.96,.35,.21,.74,.37,1.15,.45,.36,.08,.73,.12,1.09,.12,.27,0,.55-.02,.82-.05,.05,0,.09-.01,.13-.02l.1-.02h.06l.02-.02c.09-.14,.16-.29,.24-.44,.17-.36,.31-.74,.41-1.13,.13-.49,.19-.99,.16-1.5-.03-.56-.22-1.1-.53-1.56-.38-.5-.85-.92-1.39-1.23-.54-.33-1.11-.61-1.7-.84-.56-.22-1.07-.38-1.44-.48s-.61-.16-.61-.17"/><path class="cls-1" d="M32.69,5.27c-.39,.05-.81,.12-1.25,.22-.46,.1-.92,.23-1.36,.37-.48,.16-.94,.34-1.39,.56-.47,.22-.91,.49-1.33,.78-.69,.47-1.32,1.02-1.88,1.64-.42,.47-.79,.99-1.1,1.54-.21,.37-.38,.75-.52,1.15-.05,.15-.1,.3-.13,.45,.04,0,.08,.01,.12,.02,.08,0,.2,.02,.35,.02s.33,0,.55,0,.45-.03,.72-.07,.54-.08,.84-.15c.32-.07,.64-.16,.96-.27,.36-.12,.71-.26,1.05-.42,.38-.18,.76-.37,1.12-.59,.77-.47,1.49-1.02,2.16-1.62,.61-.55,1.19-1.13,1.73-1.75,.49-.55,.88-1.04,1.15-1.4s.42-.57,.42-.58-.05-.02-.16-.03-.26-.01-.45,0-.43,.01-.7,.03-.56,.05-.88,.09"/><path class="cls-1" d="M28.98,0s-.29,.18-.72,.49-1.02,.75-1.68,1.28c-.71,.58-1.39,1.2-2.04,1.85-.67,.67-1.28,1.4-1.81,2.18-.43,.63-.77,1.31-1,2.04-.16,.5-.24,1.02-.24,1.55,0,.33,.05,.66,.14,.98,.03,.12,.08,.24,.13,.35,0,0,.19-.06,.51-.2,.44-.19,.86-.42,1.27-.66,.58-.35,1.12-.75,1.63-1.2,.61-.54,1.16-1.16,1.62-1.83,.48-.72,.88-1.48,1.18-2.29,.27-.72,.49-1.45,.66-2.2,.15-.67,.24-1.25,.29-1.66s.06-.66,.06-.66h0Z"/><path class="cls-1" d="M17.55,20.95h0s-.17,.13-.44,.38c-.35,.32-.68,.67-.99,1.03-.41,.49-.77,1.01-1.06,1.57-.33,.62-.55,1.29-.66,1.99-.09,.69-.05,1.4,.11,2.08,.14,.61,.35,1.2,.63,1.77,.2,.42,.44,.83,.7,1.23,.2,.29,.33,.46,.33,.46,0,0,.19-.24,.48-.66s.68-1,1.08-1.67c.43-.71,.81-1.45,1.15-2.22,.33-.73,.56-1.51,.68-2.3,.09-.6,.03-1.22-.16-1.8-.15-.42-.39-.8-.71-1.12-.23-.23-.49-.42-.78-.58-.12-.06-.24-.12-.37-.16"/><path class="cls-1" d="M10.83,19.85c-.26,.03-.54,.08-.84,.15s-.62,.15-.95,.26-.68,.23-1.04,.39c-.38,.16-.75,.35-1.11,.55-.78,.45-1.53,.95-2.24,1.52-.69,.54-1.31,1.1-1.83,1.6s-.95,.94-1.24,1.26-.46,.51-.46,.52,.08,.03,.22,.04,.36,.03,.63,.03,.59,0,.95-.02,.76-.06,1.19-.11c.37-.05,.76-.11,1.15-.2s.8-.19,1.21-.32c.41-.13,.82-.28,1.22-.46,.4-.18,.79-.39,1.16-.63,.71-.43,1.36-.95,1.93-1.55,.44-.45,.82-.95,1.15-1.49,.22-.36,.4-.73,.55-1.12,.06-.15,.1-.29,.14-.44-.04,0-.08-.02-.13-.02-.08,0-.2-.02-.36-.02s-.35,0-.57,0-.47,.03-.75,.07h0Z"/><path class="cls-1" d="M14.6,21.07s-.19,.06-.52,.2c-.44,.18-.87,.4-1.29,.63-.59,.34-1.15,.72-1.68,1.15-.63,.51-1.2,1.1-1.69,1.75-.5,.68-.93,1.41-1.27,2.19-.3,.69-.55,1.39-.74,2.11-.14,.53-.26,1.06-.35,1.6-.06,.4-.09,.63-.09,.64h0c.27-.13,.53-.28,.78-.44,.46-.28,1.08-.68,1.77-1.17,.74-.53,1.46-1.1,2.13-1.72,.7-.63,1.33-1.32,1.89-2.08,.45-.61,.8-1.28,1.05-1.99,.17-.49,.26-1.01,.26-1.53,0-.33-.04-.66-.13-.99-.03-.12-.08-.24-.13-.35"/><path class="cls-1" d="M26.07,16.02c-.21,.03-.41,.06-.6,.11-.19,.04-.38,.09-.56,.15s-.34,.11-.5,.17-.3,.12-.43,.18-.25,.11-.35,.17-.19,.1-.27,.14l-.17,.1s-.04,.03-.07,.04c0,.14,0,.27,.03,.41,.05,.33,.14,.65,.27,.95,.19,.42,.47,.8,.81,1.11,.47,.42,1.02,.73,1.63,.91,.77,.21,1.55,.36,2.34,.46,.82,.11,1.65,.18,2.4,.23s1.41,.07,1.89,.09c.27,0,.54,.02,.81,.05-.02-.03-.13-.29-.34-.67-.27-.5-.57-.98-.9-1.44-.41-.59-.88-1.13-1.4-1.62-.54-.52-1.17-.93-1.85-1.22-.23-.09-.46-.16-.7-.22-.23-.05-.46-.09-.7-.11-.23-.02-.45-.03-.68-.02-.22,0-.43,.02-.65,.05"/><path class="cls-1" d="M20.9,19.42s-.06,0-.09,.01h-.06l-.04,.02h-.01s-.1,.17-.24,.45c-.17,.37-.31,.75-.41,1.14-.13,.5-.18,1.01-.14,1.53,.05,.58,.25,1.14,.58,1.62,.4,.53,.9,.99,1.46,1.35,.57,.38,1.18,.71,1.81,.99,.59,.27,1.14,.47,1.54,.61s.65,.22,.65,.23,.04-.25,.08-.67c.05-.54,.08-1.09,.08-1.64,0-.69-.07-1.38-.2-2.06-.12-.68-.37-1.34-.73-1.93-.28-.44-.65-.8-1.08-1.07-.39-.23-.81-.4-1.25-.5-.38-.08-.77-.13-1.15-.13-.27,0-.53,.01-.79,.05"/></g></g></svg>