<?xml version="1.0" encoding="utf-8"?>
<!-- Generator: Adobe Illustrator 26.3.1, SVG Export Plug-In . SVG Version: 6.00 Build 0)  -->
<svg version="1.1" id="svg6809" xmlns="http://www.w3.org/2000/svg" xmlns:xlink="http://www.w3.org/1999/xlink" x="0px" y="0px"
	 viewBox="0 0 993 993" style="enable-background:new 0 0 993 993;" xml:space="preserve">
<style type="text/css">
	.st0{fill:#4BA1DA;}
	.st1{fill:#164289;}
</style>
<g id="g6815" transform="translate(-3.4543269,1015.5721)">
	<path id="path6821" class="st0" d="M324.7-846.3l-1.1,433.9L104-476.3L76-165.8l773.8,6.9l103.6-701.2L324.7-846.3L324.7-846.3z"/>
	<path id="path6819" class="st1" d="M3.5-519.1v-496.5h993v993H3.5V-519.1z M282.5-302.3v-72.8l-11.2-2.8
		c-12.5-3.1-50.7-15.5-69.2-22.4c-23.9-8.9-54.4-22.9-73.4-33.7c-3.5-2-6.7-3.6-7.2-3.6c-0.5,0-0.9,42.7-0.9,104v104h162
		L282.5-302.3L282.5-302.3z M599.5-231.9c67.1-8.6,119.4-29.2,166.6-65.8c62.1-48.1,100.3-114.6,111-193.1
		c2.6-18.8,2.3-52.1-0.5-70.8c-7.5-49.3-25.9-92.7-54.5-128.5c-8-10-33.5-36.3-41-42.3c-26-20.6-40.7-30.3-62.3-41.1
		c-32-16.1-67.4-26.8-104.2-31.6c-24-3.1-43.1-3.6-158.3-3.6H340l0.5,183.6l0.5,183.6l8.5,3.4c23.2,9.4,47.4,15.4,78.5,19.4
		c18.5,2.4,45.8,3.5,59.5,2.3l9.5-0.8l0.5-127.5l0.5-127.5l16.5-0.7c42.2-1.8,80.8,3.3,110.2,14.8c49,19.1,83.9,59.5,95.8,111
		c3,13.1,3.7,38.8,1.4,52.5c-4.2,25.2-14.8,47.4-32.5,68c-33,38.4-79.5,58.7-149.5,65.4c-38.2,3.7-118.1,4.5-151.1,1.6
		c-18.2-1.6-42.7-4-45.7-4.5l-2.7-0.5l-0.3,67.5l-0.3,67.5l123-0.3C572.2-230.1,587.5-230.4,599.5-231.9L599.5-231.9L599.5-231.9z
		 M282.5-641.6v-167h-159v10.9c0,32.5,9.7,87.3,22.6,127.2c22.2,68.8,59.6,128.9,107.3,172.2c9.4,8.6,27.8,23.6,28.9,23.7
		C282.3-474.6,282.5-549.7,282.5-641.6z"/>
</g>
</svg>
